inDegrees=no
num_controls=7
num_derivatives=13
num_iterations=81
num_multipliers=7
num_parameters=0
num_slacks=7
num_states=26
objective=0.477227
objective_accelerations=0.046684
objective_balance=0.003767
objective_effort=0.042195
objective_height=0.378935
objective_ligament=0.005646
solver_duration=1149.045145
status=Solve_Succeeded
success=true
DataType=double
version=3
OpenSimVersion=4.5
endheader
time	/jointset/ground_pelvis/pelvis_tilt/value	/jointset/ground_pelvis/pelvis_tx/value	/jointset/ground_pelvis/pelvis_ty/value	/jointset/hip_l/hip_flexion_l/value	/jointset/hip_l/hip_adduction_l/value	/jointset/hip_l/hip_rotation_l/value	/jointset/back/lumbar_extension/value	/jointset/patellofemoral_l/patellar_flexion_l/value	/jointset/knee_l/knee_flexion_l/value	/jointset/knee_l/knee_adduction_l/value	/jointset/knee_l/knee_rotation_l/value	/jointset/ankle_l/ankle_angle_l/value	/jointset/subtalar_l/subtalar_angle_l/value	/jointset/ground_pelvis/pelvis_tilt/speed	/jointset/ground_pelvis/pelvis_tx/speed	/jointset/ground_pelvis/pelvis_ty/speed	/jointset/hip_l/hip_flexion_l/speed	/jointset/hip_l/hip_adduction_l/speed	/jointset/hip_l/hip_rotation_l/speed	/jointset/back/lumbar_extension/speed	/jointset/patellofemoral_l/patellar_flexion_l/speed	/jointset/knee_l/knee_flexion_l/speed	/jointset/knee_l/knee_adduction_l/speed	/jointset/knee_l/knee_rotation_l/speed	/jointset/ankle_l/ankle_angle_l/speed	/jointset/subtalar_l/subtalar_angle_l/speed	/forceset/tau_hip_flexion_l	/forceset/tau_hip_adduction_l	/forceset/tau_hip_rotation_l	/forceset/tau_knee_flexion_l	/forceset/tau_ankle_angle_l	/forceset/tau_subtalar_angle_l	/forceset/tau_lumbar_extension	lambda_cid13_p0	lambda_cid13_p1	lambda_cid13_p2	lambda_cid13_p3	lambda_cid13_p4	lambda_cid13_p5	lambda_cid14_p0	/jointset/ground_pelvis/pelvis_tilt/accel	/jointset/ground_pelvis/pelvis_tx/accel	/jointset/ground_pelvis/pelvis_ty/accel	/jointset/hip_l/hip_flexion_l/accel	/jointset/hip_l/hip_adduction_l/accel	/jointset/hip_l/hip_rotation_l/accel	/jointset/back/lumbar_extension/accel	/jointset/patellofemoral_l/patellar_flexion_l/accel	/jointset/knee_l/knee_flexion_l/accel	/jointset/knee_l/knee_adduction_l/accel	/jointset/knee_l/knee_rotation_l/accel	/jointset/ankle_l/ankle_angle_l/accel	/jointset/subtalar_l/subtalar_angle_l/accel	gamma_cid13_p0	gamma_cid13_p1	gamma_cid13_p2	gamma_cid13_p3	gamma_cid13_p4	gamma_cid13_p5	gamma_cid14_p0
1.5	-0.003069519460089972	-0.01651668745678514	0.8476731121948682	0.7038262101565066	-0.3208888135828368	-0.1309684063283298	-0.793516655083108	0.7927794399006378	0.7927794399005985	-0.09610107648722024	-0.174490930034639	0.1512115886706457	0.02516180641431615	0.3496123853199112	0.2419703123453281	0.4461597888362583	-2.072786595665513	0.08071868530817691	-0.645665935756167	0.8458204589991685	-2.046117358611354	-2.046117358611546	-0.1621167529736771	-0.0004307000125609146	-0.4478603956945024	-0.06501223795211183	-0.1990502880431086	0.03746525412859626	-0.006414658017487954	-0.2329461774449248	0.0837502383344703	0.02587501258139408	0.2786197191271996	-15.57926996737705	-9.953200652379961	2.7813292017845	-10.43368740525002	-666.3819097640769	-60.47537342405172	-14.73454017175457	0.02569022989455705	0.7122784503856427	-0.6525470362698946	-0.7401424081414956	0.4806632438292343	-0.4149919176376901	1.951117909216962	-0.9903029319186801	-0.9903029319186792	-0.2243786327962499	0.004846104577228918	-0.2651019924169357	0.4716574461795578	3.953914042451341e-07	7.084691466967925e-07	-1.915875937241404e-06	-1.081237244949773e-07	4.820906251177131e-07	5.116537718860389e-07	3.265496529409917e-07
1.51	0.0004277668468293006	-0.01406156347593548	0.8521012257731355	0.6830629652502948	-0.3200587478151847	-0.1374441960302498	-0.7849624422140912	0.7722709745569697	0.7722709745570396	-0.09773641814645888	-0.174495567102585	0.1467200991657173	0.02453393699382891	0.349795559466369	0.2490306781680686	0.4393712265917974	-2.079594764168661	0.08529570729421919	-0.649400191349893	0.8649057091535678	-2.055287870042433	-2.05528787004245	-0.1649573099127295	-0.0004700768200208383	-0.4503449573015793	-0.06053609997223838	-0.1913902761852718	0.03633008669246712	-0.006190189558938766	-0.2293658573742185	0.08465873122499383	0.02516831061377568	0.2712468570021866	-15.04296147943249	-9.819710757933633	2.850885367759592	-10.44833675084935	-661.6603040895646	-60.53689771197389	-15.48037396210073	0.007268062071897372	0.6993306980914347	-0.7056586159302271	-0.610966232134684	0.446546827172401	-0.3385224767562853	1.869767720780579	-0.8373198630599935	-0.8373198630338109	-0.3146453574122827	-0.004693339380130812	-0.226210242913321	0.4394739199976309	4.075639853490868e-07	9.336832728372491e-07	-1.880772736305306e-06	-8.329946022847725e-08	5.177906354624009e-07	6.123512779518437e-07	3.440905546039845e-07
1.52	0.003925412306209167	-0.01153655282688403	0.8564587241694788	0.6622396762268939	-0.3191828467974514	-0.143954504307382	-0.776220869013085	0.7516794251761716	0.7516794251762587	-0.09940031560179843	-0.1744998706916872	0.1422065486451078	0.02395160534236167	0.3496842158148414	0.2559476459856861	0.4320367524515134	-2.084795419101152	0.08988573532748056	-0.6525696508042547	0.8832925253971449	-2.062734166047812	-2.062734166047654	-0.1678279121698723	-0.0003640042663942742	-0.4522725988310619	-0.05590468414810572	-0.1837302643273953	0.03519491925639009	-0.005965721101465335	-0.2257855373034447	0.08556722411555871	0.0244616086462776	0.2638739948771839	-14.50531150658975	-9.687669350807731	2.922060490630323	-10.51344572884601	-656.9523893039114	-60.66345037810667	-16.21402979237062	-0.03321332970271606	0.6835988493612343	-0.7617294154345005	-0.4186396940098043	0.4832644532731739	-0.302032689764675	1.811431127052425	-0.6454598467787879	-0.645459846778792	-0.2303876964143438	0.03393597679472359	-0.1537179768978386	0.5027130150315471	3.827969943779145e-07	1.244780354396671e-06	-1.642465106904268e-06	-2.561511698743442e-08	5.165488885306793e-07	6.901084729068844e-07	3.441091937044671e-07
1.53	0.00742008594691875	-0.008943343464721016	0.8607402671207136	0.6413726836905257	-0.3182608892562753	-0.1504951263907894	-0.7672993066374393	0.7310213841594998	0.7310213841595656	-0.101092196507406	-0.1745032103580353	0.1376759096006853	0.02341627510443433	0.3491649800649942	0.2626443450597837	0.4241910270830219	-2.088307990415948	0.094502224120913	-0.6554351765655768	0.9008626606433918	-2.068650906282623	-2.068650906282515	-0.1705937836852028	-0.0002470386064724169	-0.4538251010447405	-0.05116534910456178	-0.1755923872471945	0.03376461364355308	-0.005744169730559836	-0.2226664161329191	0.08625083488951341	0.02367151507394751	0.2560060247301946	-14.07693864789049	-9.494120147272577	2.976395200977763	-10.14025686959581	-652.5202018271258	-60.82298675810663	-16.93572367186254	-0.07409630718809124	0.6552465401117208	-0.808024828567401	-0.2732841634570496	0.4502180802490234	-0.2605696670143582	1.70621135995063	-0.5313745714764438	-0.5313745714839876	-0.3062431004294086	0.008921802323942171	-0.1514345463282219	0.4587600963745656	3.187817080769224e-07	1.647128076088744e-06	-1.188252772259235e-06	6.69830601640597e-08	4.760565244927732e-07	7.434915873067385e-07	3.255104288322826e-07
1.54	0.01090700370821958	-0.006284658891081605	0.864940946672061	0.620479421778358	-0.3172928914295817	-0.157060755161367	-0.7582067615820244	0.7103108570485089	0.7103108570486335	-0.1028130473723607	-0.1745037113795618	0.1331306618935798	0.02292818148641425	0.3481330399326726	0.2690426882809662	0.4158640724741102	-2.090049294260438	0.09909379242918366	-0.6575709882348476	0.9174890613512429	-2.073231384903204	-2.073231384903147	-0.1736219040540204	0.0002037247227716569	-0.4551943313674299	-0.04645736016667013	-0.1674545101670463	0.03233430803066788	-0.005522618359007256	-0.2195472949624427	0.08693444566344398	0.02288142150153633	0.2481380545831788	-13.64590064772381	-9.302270082274303	3.032409602832951	-9.815425645108592	-648.0806136559407	-61.02792259347241	-17.64631675611513	-0.1357542061978194	0.6239276787784638	-0.8579752635185007	-0.06438619994858896	0.4782803562408145	-0.1560898713543048	1.622684219373153	-0.3782075239331701	-0.3782075239331719	-0.2828374671117656	0.1006955106593473	-0.1170635986997518	0.4964437939012386	2.346039292764152e-07	1.917642365084059e-06	-6.914412729900827e-07	1.490129172866195e-07	4.134046177520761e-07	7.225860499056754e-07	2.873397392184402e-07
1.55	0.01438205740047304	-0.003563198194975621	0.869055894322177	0.5995773068217313	-0.3162789169327646	-0.163645446514933	-0.7489523568555968	0.6895633570903719	0.6895633570904056	-0.1045635273712549	-0.1744991910593492	0.1285743142833794	0.02248788243145628	0.3468969664649305	0.2752282187329544	0.4070421823261495	-2.090127165622677	0.1036703994060746	-0.659251705499735	0.9332607122529134	-2.075845477511207	-2.075845477511192	-0.1764847318996609	0.0006942365946079026	-0.455893681973745	-0.04158100938746984	-0.1606712584552675	0.031071845128759	-0.005314300689246499	-0.2152593188404453	0.08696125598112905	0.02220522682032301	0.2414745731662501	-13.4027042456015	-9.139182206716596	3.106927799443766	-9.876410022606523	-643.7235221341432	-61.10727908403324	-18.34574557234237	-0.1146584499653173	0.6127324326922406	-0.9067319277666047	0.05747632054641191	0.4424594553250495	-0.1565499262625125	1.534729773180955	-0.1395793241148019	-0.1395793241211293	-0.2892415814554812	0.0223278395284814	-0.01907816575075391	0.4860952695904032	1.271954525960331e-07	2.036261612059205e-06	-1.455481275235789e-07	2.188662317671469e-07	3.252210639842515e-07	6.160870658644299e-07	2.266187884892104e-07
1.56	0.01784532545146736	-0.0007805088534933332	0.8730801358633472	0.5786818059364606	-0.3152201546487921	-0.1702434424955933	-0.7395441707706302	0.6688024023671637	0.6688024023671373	-0.1063428828762235	-0.1744899458576395	0.1240164316922852	0.02209691979422262	0.345775911681084	0.2812884173562272	0.3977228506849418	-2.088726479988602	0.1080513498594358	-0.6602319136528924	0.9482453330592752	-2.075922337914449	-2.075922337914477	-0.1793970052719132	0.001148701029746029	-0.4555013275461912	-0.03659007662183195	-0.1538880067435072	0.02980938222684172	-0.005105983019344747	-0.2109713427184568	0.08698806629881313	0.02152903213909965	0.2348110917493078	-13.16063913688921	-8.975732939258631	3.181201938668441	-9.960551826145013	-639.4047655706096	-61.2071909085907	-19.02168827257869	-0.112750469418907	0.59886131303561	-0.9574635621678558	0.23132519931394	0.4391490515348153	-0.01598804900841898	1.465278200311346	0.1292389170187925	0.1292389170187863	-0.2927265724341547	0.09348602331959069	0.1012774080743072	0.5193601911888095	5.492509238403657e-08	2.225941391010449e-06	2.179695170162442e-07	2.832314089416755e-07	2.588553664235512e-07	5.755098074290448e-07	1.976213973197088e-07
1.57	0.02129661681697322	0.002061644135699702	0.877008864238321	0.5578088123630188	-0.3141182965318785	-0.1768491255804577	-0.7299907114655675	0.6480517205364724	0.648051720536481	-0.108150932701472	-0.1744768902748446	0.11946640997696	0.02175620716985751	0.3443862011134197	0.287068469272904	0.3879581569322659	-2.085535676372962	0.1123183149432255	-0.6608416067126867	0.9622286098398605	-2.073965634239447	-2.073965634239425	-0.1821934200585857	0.001475501319279282	-0.4544755717236498	-0.03155411191402942	-0.1452891922800856	0.02804461090905028	-0.005073243573869075	-0.2085364119872825	0.08800978826823601	0.02054667718244115	0.2265388895877195	-12.66762428445322	-8.699194767561414	3.209960984345529	-9.476147332198247	-635.4531605098886	-61.38271958654204	-19.66688719498448	-0.1665304327724446	0.5565952192957999	-0.9956329376491724	0.4134118282781724	0.419778587036388	-0.07381703043608062	1.332164699738705	0.2661023075730407	0.2661023075805155	-0.2697017947438956	0.004296769973137129	0.107419914794769	0.4949930809484215	2.657737775752163e-08	2.504446834931811e-06	3.535177853977188e-07	3.407364144837055e-07	2.197619891217556e-07	6.173347060009842e-07	2.082784555998668e-07
1.58	0.02473112126033578	0.004959401261721674	0.8808380135446018	0.5369778176028472	-0.312973907094074	-0.1834589770151252	-0.7203039569361387	0.6273280489854898	0.6273280489855489	-0.1099862672471746	-0.1744601627415141	0.1149274848689497	0.02146570988664494	0.3424185272524809	0.2924092447220146	0.3778070369463516	-2.080326717333759	0.1165576140364355	-0.6610655836113335	0.9749043779327232	-2.070520281971158	-2.070520281971085	-0.1848539493636657	0.001883091136923329	-0.4532820060830766	-0.02654700839133175	-0.1366903778167058	0.02627983959121838	-0.005040504128295742	-0.2061014812561298	0.08903151023764384	0.01956432222572721	0.2182666874261109	-12.17800540518	-8.421510001899193	3.237906528322581	-9.005175549770712	-631.5708878914025	-61.5773147007857	-20.27658993610208	-0.2283431280740156	0.5110060195226164	-1.034748808815505	0.6349562840263174	0.433615853418811	0.06115518322095045	1.203776462766757	0.4269686356763659	0.4269686356763669	-0.265549476115703	0.1096439289416093	0.134839371680964	0.5135879541678812	8.601769157560965e-09	2.565454029814288e-06	4.050765660229369e-07	3.565421321151491e-07	2.018378948794687e-07	6.142487637508695e-07	2.063583101358004e-07
1.59	0.02814385218457331	0.007908558861384311	0.8845637541322121	0.5162085764887707	-0.3117874218838862	-0.1900682791982812	-0.7104968951527362	0.6066476203471659	0.6066476203471849	-0.1118477671369909	-0.1744386296129191	0.1104024025367935	0.02122535382140294	0.3401071215722317	0.2973677486514215	0.3672803331616146	-2.073224178661968	0.1207048487758405	-0.6607028264139507	0.9863016097084457	-2.065175846179128	-2.065175846179085	-0.1874374451733531	0.00240655284705623	-0.4516018809834859	-0.0215233931584245	-0.1290403619643904	0.02456119785301483	-0.005058238288596497	-0.2029814631081942	0.08977197806383408	0.01871256866862553	0.2109024617960055	-11.77260897056958	-8.192138162480971	3.280795706556308	-8.851095296762439	-627.9472339024945	-61.75259309755524	-20.84605943556214	-0.2356441269944351	0.480151886286823	-1.07069945869859	0.7924744407345803	0.3997605162824214	0.03778503505533445	1.076741178873694	0.6465857671896806	0.6465857671851928	-0.2530774375081763	0.0211822820790302	0.2045470313285914	0.4964879746007406	4.702590165066037e-09	2.33128502957258e-06	3.426496132646705e-07	3.157559590108001e-07	2.126435419322277e-07	5.502123946708274e-07	1.873691024474303e-07
